<svg version="1.1" id="Layer_1" xmlns="http://www.w3.org/2000/svg" xmlns:xlink="http://www.w3.org/1999/xlink" x="0px" y="0px"
	 width="100%" viewBox="0 0 500 500" enable-background="new 0 0 500 500" xml:space="preserve">
<path fill="#FFFFFF" opacity="1.000000" stroke="none" 
	d="
M237.000000,501.000000 
	C158.000015,501.000000 79.500038,501.000000 1.000042,501.000000 
	C1.000028,334.333405 1.000028,167.666779 1.000014,1.000132 
	C167.666565,1.000088 334.333130,1.000088 500.999756,1.000044 
	C500.999847,167.666519 500.999847,334.333038 500.999939,500.999786 
	C413.166656,501.000000 325.333344,501.000000 237.000000,501.000000 
M404.418396,247.861893 
	C405.417908,247.861847 406.417389,247.862457 407.416901,247.861649 
	C415.259338,247.855240 415.722809,247.407501 415.726440,239.772675 
	C415.730530,231.110168 415.727539,222.447678 415.727509,213.785172 
	C415.727478,198.792389 415.702362,183.799515 415.749023,168.806870 
	C415.757996,165.930023 415.422791,162.839081 412.071625,162.729492 
	C402.347595,162.411484 392.606445,162.616806 382.216583,162.616806 
	C382.216583,175.375244 382.216583,187.562668 382.216583,199.750092 
	C380.028900,198.468719 378.900909,196.933914 378.022400,195.267563 
	C372.980957,185.704727 368.064392,176.075226 362.932526,166.561615 
	C362.063232,164.950165 360.400604,162.663940 359.025604,162.607376 
	C350.263245,162.246948 341.478729,162.423920 332.921326,162.423920 
	C332.921326,191.190323 332.921326,219.374390 332.921326,247.861847 
	C342.254211,247.861847 350.893494,247.862778 359.532776,247.861557 
	C367.248932,247.860474 367.250336,247.859436 367.253021,240.203262 
	C367.255219,233.993607 367.253479,227.783966 367.253479,221.574310 
	C367.846985,221.433884 368.440521,221.293457 369.034027,221.153030 
	C372.196533,226.486954 375.845947,231.598618 378.406433,237.207367 
	C382.165344,245.441269 387.606201,249.696365 396.957306,247.920197 
	C399.047516,247.523178 401.277496,247.861862 404.418396,247.861893 
M86.388435,208.467194 
	C86.458885,211.629395 86.490761,214.792984 86.606323,217.953537 
	C87.172623,233.441864 95.658249,245.323990 110.732109,248.963211 
	C119.130791,250.990891 128.169403,250.922058 136.912506,250.856079 
	C156.368591,250.709290 171.225494,235.601929 171.565475,216.148087 
	C171.789459,203.331406 171.842728,190.511642 171.945999,177.693039 
	C171.985825,172.750458 171.952515,167.807266 171.952515,162.662170 
	C160.087097,162.662170 148.684891,162.662170 136.932281,162.662170 
	C136.264145,174.051392 135.682205,185.164383 134.934631,196.266205 
	C134.487610,202.904999 134.016006,209.561844 133.022232,216.129898 
	C132.781342,217.722046 130.434296,218.995514 129.055725,220.415512 
	C127.952454,219.184814 126.344025,218.122559 125.864296,216.683929 
	C125.144363,214.524933 125.122948,212.108261 124.966095,209.790222 
	C123.911018,194.197205 122.898636,178.601303 121.853279,162.715439 
	C109.713081,162.715439 97.845795,162.715439 86.329674,162.715439 
	C86.329674,177.877243 86.329674,192.677414 86.388435,208.467194 
M249.893051,187.162781 
	C251.428543,187.695953 252.958450,188.671860 254.500443,188.691315 
	C265.488464,188.829987 276.482483,188.638397 287.464783,188.926651 
	C289.084442,188.969162 290.652161,190.990051 292.243927,192.095612 
	C290.685791,193.451401 289.318665,195.253235 287.511353,196.027145 
	C285.960602,196.691208 283.906525,196.186630 282.075012,196.187042 
	C271.471313,196.189346 260.867584,196.188156 250.202209,196.188156 
	C250.202209,213.669693 250.202209,230.543915 250.202209,247.779953 
	C260.011292,247.779953 269.473083,247.764862 278.934814,247.789032 
	C281.831146,247.796432 283.191711,246.482193 283.154602,243.535416 
	C283.087555,238.207916 283.108643,232.878586 283.162384,227.550735 
	C283.177124,226.093399 283.439331,224.638535 283.587952,223.182541 
	C284.024536,223.148880 284.461121,223.115234 284.897705,223.081589 
	C288.175751,230.113129 291.584320,237.088150 294.665588,244.204895 
	C295.848480,246.936920 297.438141,247.899506 300.349609,247.842514 
	C308.505615,247.682922 316.666870,247.820068 324.825714,247.773254 
	C330.482941,247.740814 331.361847,246.170441 328.476593,241.221985 
	C323.813416,233.224167 319.081848,225.266220 314.627563,217.712723 
	C318.329071,213.284973 322.333771,209.760300 324.761597,205.364639 
	C333.817291,188.969147 323.791382,167.750549 303.942719,164.616180 
	C286.370239,161.841217 268.270325,162.406342 249.857178,161.469116 
	C249.857178,170.650467 249.857178,178.434967 249.893051,187.162781 
M176.868103,221.499985 
	C176.868103,230.116058 176.868103,238.732132 176.868103,247.105728 
	C177.649246,247.492203 177.935928,247.757874 178.223206,247.758499 
	C199.371475,247.805008 220.519867,247.810532 241.668045,247.880142 
	C244.696548,247.890106 245.837967,246.432617 245.807373,243.585251 
	C245.760864,239.255920 245.799683,234.925705 245.799255,230.595856 
	C245.798462,222.389603 245.797577,222.389252 237.534683,222.388702 
	C230.185501,222.388214 222.836319,222.388611 215.487152,222.388611 
	C215.433945,221.876175 215.380753,221.363754 215.327545,220.851318 
	C219.583115,219.888763 223.839722,218.930817 228.094040,217.962753 
	C241.301697,214.957474 241.159225,214.956116 241.145416,201.246872 
	C241.141327,197.188980 239.620529,195.998886 235.842087,196.136459 
	C230.353836,196.336288 224.852737,196.168152 219.357269,196.190628 
	C216.462967,196.202469 213.409012,195.573013 213.773224,192.231689 
	C213.919235,190.892395 217.296616,189.040527 219.290985,188.923965 
	C226.261597,188.516586 233.275543,188.605209 240.262955,188.825119 
	C244.284012,188.951660 246.103119,187.690186 245.861557,183.420944 
	C245.589188,178.606918 245.811722,173.765564 245.796417,168.936172 
	C245.776627,162.688156 245.470734,162.359711 239.378967,162.355728 
	C220.227707,162.343201 201.076462,162.350891 181.925201,162.350754 
	C180.335495,162.350739 178.745789,162.350754 176.868088,162.350754 
	C176.868088,182.224274 176.868088,201.362122 176.868103,221.499985 
M301.537903,262.972076 
	C297.704712,256.641968 290.649323,254.173782 283.417542,256.633026 
	C278.429443,258.329285 275.150116,262.492981 275.229523,267.409973 
	C275.312347,272.537170 278.091064,275.770721 282.900543,277.276733 
	C285.906860,278.218079 289.046539,278.805084 291.937195,280.006348 
	C292.976379,280.438232 293.986603,282.184052 294.027466,283.364197 
	C294.057892,284.243622 292.510925,285.942352 291.660492,285.946198 
	C288.956604,285.958435 285.077484,286.335968 283.772339,284.786591 
	C280.367035,280.744080 277.430328,282.123077 272.897003,284.148346 
	C274.981964,286.682129 276.376831,289.176361 278.465424,290.749786 
	C282.871460,294.069000 288.041656,294.103821 293.268188,292.992554 
	C298.933533,291.788025 302.752991,287.767181 303.132599,282.565216 
	C303.556915,276.750580 301.117706,273.240723 294.905548,271.107300 
	C292.399994,270.246826 289.636780,270.044861 287.248688,268.970154 
	C285.904968,268.365417 285.086945,266.592712 284.032074,265.346161 
	C285.466125,264.500885 287.019592,262.807953 288.308899,262.989655 
	C290.862000,263.349518 293.269135,264.744751 295.736633,265.712006 
	C295.736206,266.169922 295.735748,266.627838 295.735321,267.085754 
	C297.752472,265.940491 299.769623,264.795197 301.537903,262.972076 
M319.628387,262.852661 
	C321.239990,263.113770 323.641968,262.797424 324.327209,263.735352 
	C327.394653,267.933929 330.471802,266.075470 333.730835,264.430481 
	C331.447876,257.799255 326.637268,255.201324 318.276093,256.022552 
	C312.317627,256.607788 307.916840,260.781677 307.270264,266.460907 
	C306.690063,271.557220 309.470886,275.427582 315.403137,277.463531 
	C318.220673,278.430511 321.237946,278.868500 323.964661,280.019989 
	C324.998627,280.456635 325.995331,282.211914 326.025177,283.391022 
	C326.047455,284.271423 324.491425,285.951965 323.635712,285.953583 
	C320.933990,285.958710 317.072968,286.325348 315.754486,284.773285 
	C312.343964,280.758453 309.418213,282.117065 305.634369,283.824799 
	C307.492065,290.254272 312.055359,292.873474 317.850555,293.420319 
	C324.009827,294.001434 329.962677,293.165924 333.656830,287.272888 
	C337.153259,281.695282 335.207977,274.829254 329.198975,272.125610 
	C326.054718,270.710907 322.505859,270.221130 319.248810,269.018219 
	C318.011536,268.561249 316.164856,267.207306 316.226349,266.383911 
	C316.316376,265.178680 317.873962,264.083069 319.628387,262.852661 
M354.714966,283.147736 
	C354.861206,284.614777 354.525513,286.392883 355.236908,287.495148 
	C358.346832,292.313751 363.304871,293.753876 368.667206,293.615143 
	C377.141571,293.395874 382.570740,289.146576 383.118530,282.729187 
	C383.719452,275.689240 380.175934,272.061340 370.744232,269.992493 
	C369.124878,269.637268 367.377472,269.401672 365.995483,268.589600 
	C365.052155,268.035309 364.046051,266.503357 364.161682,265.539734 
	C364.274780,264.597260 365.704834,263.213257 366.680237,263.101654 
	C368.569458,262.885468 371.501312,262.703857 372.316376,263.781799 
	C375.492920,267.982758 378.501282,265.923981 381.754669,264.456757 
	C379.203674,257.223450 371.251770,253.908203 363.334442,256.664429 
	C358.347778,258.400421 355.103760,262.580231 355.224823,267.491852 
	C355.351135,272.617157 358.172516,275.808350 362.971344,277.304657 
	C365.028656,277.946136 367.324768,278.087219 369.162354,279.094299 
	C371.061157,280.134979 372.535004,281.950928 374.194763,283.427704 
	C372.176666,284.439667 370.239166,285.954193 368.113495,286.295013 
	C366.578674,286.541107 364.001434,285.712341 363.268219,284.517029 
	C361.043732,280.890381 358.333984,282.088013 354.714966,283.147736 
M270.646912,286.875885 
	C267.829498,278.021027 264.820496,269.220306 262.296722,260.282532 
	C261.390991,257.074951 259.931824,256.352753 256.803833,256.083130 
	C252.227982,255.688690 250.316116,257.499847 249.220703,261.683533 
	C247.709656,267.454803 245.648010,273.081329 243.840027,278.775482 
	C242.402313,283.303497 240.991348,287.840057 239.522491,292.519379 
	C244.147934,293.491730 247.647003,293.833496 248.514465,288.234222 
	C248.673523,287.207642 251.150681,285.775360 252.483688,285.850220 
	C255.520599,286.020782 260.841278,286.477112 261.134003,287.755829 
	C262.745636,294.796478 267.372711,293.034698 272.148621,292.671234 
	C271.685760,290.827789 271.287903,289.243225 270.646912,286.875885 
M399.499664,256.208282 
	C395.080078,256.208282 390.660522,256.208282 386.214081,256.208282 
	C386.214081,259.110565 386.214081,261.210175 386.214081,263.574615 
	C389.188110,263.781830 391.920013,263.972198 395.192871,264.200256 
	C395.192871,273.900055 395.192871,283.293701 395.192871,292.692963 
	C398.344177,292.692963 400.915802,292.692963 404.054993,292.692963 
	C404.054993,282.980377 404.054993,273.588013 404.054993,264.098389 
	C407.231567,263.920837 409.837036,263.775238 412.677246,263.616486 
	C412.677246,261.118195 412.677246,258.907379 412.677246,256.208557 
	C408.412445,256.208557 404.451630,256.208557 399.499664,256.208282 
M346.340057,256.252869 
	C344.606384,256.252869 342.872742,256.252869 341.181763,256.252869 
	C341.181763,268.955170 341.181763,280.802429 341.181763,292.688171 
	C343.943878,292.688171 346.337860,292.688171 349.135376,292.688171 
	C349.135376,281.138184 349.173950,269.898132 349.053467,258.659851 
	C349.044922,257.862762 347.866821,257.078217 346.340057,256.252869 
z"/>
<path fill="#383F7E" opacity="1.000000" stroke="none" 
	d="
M403.930756,247.861877 
	C401.277496,247.861862 399.047516,247.523178 396.957306,247.920197 
	C387.606201,249.696365 382.165344,245.441269 378.406433,237.207367 
	C375.845947,231.598618 372.196533,226.486954 369.034027,221.153030 
	C368.440521,221.293457 367.846985,221.433884 367.253479,221.574310 
	C367.253479,227.783966 367.255219,233.993607 367.253021,240.203262 
	C367.250336,247.859436 367.248932,247.860474 359.532776,247.861557 
	C350.893494,247.862778 342.254211,247.861847 332.921326,247.861847 
	C332.921326,219.374390 332.921326,191.190323 332.921326,162.423920 
	C341.478729,162.423920 350.263245,162.246948 359.025604,162.607376 
	C360.400604,162.663940 362.063232,164.950165 362.932526,166.561615 
	C368.064392,176.075226 372.980957,185.704727 378.022400,195.267563 
	C378.900909,196.933914 380.028900,198.468719 382.216583,199.750092 
	C382.216583,187.562668 382.216583,175.375244 382.216583,162.616806 
	C392.606445,162.616806 402.347595,162.411484 412.071625,162.729492 
	C415.422791,162.839081 415.757996,165.930023 415.749023,168.806870 
	C415.702362,183.799515 415.727478,198.792389 415.727509,213.785172 
	C415.727539,222.447678 415.730530,231.110168 415.726440,239.772675 
	C415.722809,247.407501 415.259338,247.855240 407.416901,247.861649 
	C406.417389,247.862457 405.417908,247.861847 403.930756,247.861877 
z"/>
<path fill="#373E7E" opacity="1.000000" stroke="none" 
	d="
M86.359055,207.972382 
	C86.329674,192.677414 86.329674,177.877243 86.329674,162.715439 
	C97.845795,162.715439 109.713081,162.715439 121.853279,162.715439 
	C122.898636,178.601303 123.911018,194.197205 124.966095,209.790222 
	C125.122948,212.108261 125.144363,214.524933 125.864296,216.683929 
	C126.344025,218.122559 127.952454,219.184814 129.055725,220.415512 
	C130.434296,218.995514 132.781342,217.722046 133.022232,216.129898 
	C134.016006,209.561844 134.487610,202.904999 134.934631,196.266205 
	C135.682205,185.164383 136.264145,174.051392 136.932281,162.662170 
	C148.684891,162.662170 160.087097,162.662170 171.952515,162.662170 
	C171.952515,167.807266 171.985825,172.750458 171.945999,177.693039 
	C171.842728,190.511642 171.789459,203.331406 171.565475,216.148087 
	C171.225494,235.601929 156.368591,250.709290 136.912506,250.856079 
	C128.169403,250.922058 119.130791,250.990891 110.732109,248.963211 
	C95.658249,245.323990 87.172623,233.441864 86.606323,217.953537 
	C86.490761,214.792984 86.458885,211.629395 86.359055,207.972382 
z"/>
<path fill="#383F7E" opacity="1.000000" stroke="none" 
	d="
M249.875122,186.691132 
	C249.857178,178.434967 249.857178,170.650467 249.857178,161.469116 
	C268.270325,162.406342 286.370239,161.841217 303.942719,164.616180 
	C323.791382,167.750549 333.817291,188.969147 324.761597,205.364639 
	C322.333771,209.760300 318.329071,213.284973 314.627563,217.712723 
	C319.081848,225.266220 323.813416,233.224167 328.476593,241.221985 
	C331.361847,246.170441 330.482941,247.740814 324.825714,247.773254 
	C316.666870,247.820068 308.505615,247.682922 300.349609,247.842514 
	C297.438141,247.899506 295.848480,246.936920 294.665588,244.204895 
	C291.584320,237.088150 288.175751,230.113129 284.897705,223.081589 
	C284.461121,223.115234 284.024536,223.148880 283.587952,223.182541 
	C283.439331,224.638535 283.177124,226.093399 283.162384,227.550735 
	C283.108643,232.878586 283.087555,238.207916 283.154602,243.535416 
	C283.191711,246.482193 281.831146,247.796432 278.934814,247.789032 
	C269.473083,247.764862 260.011292,247.779953 250.202209,247.779953 
	C250.202209,230.543915 250.202209,213.669693 250.202209,196.188156 
	C260.867584,196.188156 271.471313,196.189346 282.075012,196.187042 
	C283.906525,196.186630 285.960602,196.691208 287.511353,196.027145 
	C289.318665,195.253235 290.685791,193.451401 292.243927,192.095612 
	C290.652161,190.990051 289.084442,188.969162 287.464783,188.926651 
	C276.482483,188.638397 265.488464,188.829987 254.500443,188.691315 
	C252.958450,188.671860 251.428543,187.695953 249.875122,186.691132 
z"/>
<path fill="#39407E" opacity="1.000000" stroke="none" 
	d="
M176.868103,220.999969 
	C176.868088,201.362122 176.868088,182.224274 176.868088,162.350754 
	C178.745789,162.350754 180.335495,162.350739 181.925201,162.350754 
	C201.076462,162.350891 220.227707,162.343201 239.378967,162.355728 
	C245.470734,162.359711 245.776627,162.688156 245.796417,168.936172 
	C245.811722,173.765564 245.589188,178.606918 245.861557,183.420944 
	C246.103119,187.690186 244.284012,188.951660 240.262955,188.825119 
	C233.275543,188.605209 226.261597,188.516586 219.290985,188.923965 
	C217.296616,189.040527 213.919235,190.892395 213.773224,192.231689 
	C213.409012,195.573013 216.462967,196.202469 219.357269,196.190628 
	C224.852737,196.168152 230.353836,196.336288 235.842087,196.136459 
	C239.620529,195.998886 241.141327,197.188980 241.145416,201.246872 
	C241.159225,214.956116 241.301697,214.957474 228.094040,217.962753 
	C223.839722,218.930817 219.583115,219.888763 215.327545,220.851318 
	C215.380753,221.363754 215.433945,221.876175 215.487152,222.388611 
	C222.836319,222.388611 230.185501,222.388214 237.534683,222.388702 
	C245.797577,222.389252 245.798462,222.389603 245.799255,230.595856 
	C245.799683,234.925705 245.760864,239.255920 245.807373,243.585251 
	C245.837967,246.432617 244.696548,247.890106 241.668045,247.880142 
	C220.519867,247.810532 199.371475,247.805008 178.223206,247.758499 
	C177.935928,247.757874 177.649246,247.492203 176.868103,247.105728 
	C176.868103,238.732132 176.868103,230.116058 176.868103,220.999969 
z"/>
<path fill="#3FB8FF" opacity="1.000000" stroke="none" 
	d="
M301.662354,263.310974 
	C299.769623,264.795197 297.752472,265.940491 295.735321,267.085754 
	C295.735748,266.627838 295.736206,266.169922 295.736633,265.712006 
	C293.269135,264.744751 290.862000,263.349518 288.308899,262.989655 
	C287.019592,262.807953 285.466125,264.500885 284.032074,265.346161 
	C285.086945,266.592712 285.904968,268.365417 287.248688,268.970154 
	C289.636780,270.044861 292.399994,270.246826 294.905548,271.107300 
	C301.117706,273.240723 303.556915,276.750580 303.132599,282.565216 
	C302.752991,287.767181 298.933533,291.788025 293.268188,292.992554 
	C288.041656,294.103821 282.871460,294.069000 278.465424,290.749786 
	C276.376831,289.176361 274.981964,286.682129 272.897003,284.148346 
	C277.430328,282.123077 280.367035,280.744080 283.772339,284.786591 
	C285.077484,286.335968 288.956604,285.958435 291.660492,285.946198 
	C292.510925,285.942352 294.057892,284.243622 294.027466,283.364197 
	C293.986603,282.184052 292.976379,280.438232 291.937195,280.006348 
	C289.046539,278.805084 285.906860,278.218079 282.900543,277.276733 
	C278.091064,275.770721 275.312347,272.537170 275.229523,267.409973 
	C275.150116,262.492981 278.429443,258.329285 283.417542,256.633026 
	C290.649323,254.173782 297.704712,256.641968 301.662354,263.310974 
z"/>
<path fill="#3FB8FF" opacity="1.000000" stroke="none" 
	d="
M319.217224,262.896698 
	C317.873962,264.083069 316.316376,265.178680 316.226349,266.383911 
	C316.164856,267.207306 318.011536,268.561249 319.248810,269.018219 
	C322.505859,270.221130 326.054718,270.710907 329.198975,272.125610 
	C335.207977,274.829254 337.153259,281.695282 333.656830,287.272888 
	C329.962677,293.165924 324.009827,294.001434 317.850555,293.420319 
	C312.055359,292.873474 307.492065,290.254272 305.634369,283.824799 
	C309.418213,282.117065 312.343964,280.758453 315.754486,284.773285 
	C317.072968,286.325348 320.933990,285.958710 323.635712,285.953583 
	C324.491425,285.951965 326.047455,284.271423 326.025177,283.391022 
	C325.995331,282.211914 324.998627,280.456635 323.964661,280.019989 
	C321.237946,278.868500 318.220673,278.430511 315.403137,277.463531 
	C309.470886,275.427582 306.690063,271.557220 307.270264,266.460907 
	C307.916840,260.781677 312.317627,256.607788 318.276093,256.022552 
	C326.637268,255.201324 331.447876,257.799255 333.730835,264.430481 
	C330.471802,266.075470 327.394653,267.933929 324.327209,263.735352 
	C323.641968,262.797424 321.239990,263.113770 319.217224,262.896698 
z"/>
<path fill="#3FB8FF" opacity="1.000000" stroke="none" 
	d="
M355.096924,283.034546 
	C358.333984,282.088013 361.043732,280.890381 363.268219,284.517029 
	C364.001434,285.712341 366.578674,286.541107 368.113495,286.295013 
	C370.239166,285.954193 372.176666,284.439667 374.194763,283.427734 
	C372.535004,281.950928 371.061157,280.134979 369.162354,279.094299 
	C367.324768,278.087219 365.028656,277.946136 362.971344,277.304657 
	C358.172516,275.808350 355.351135,272.617157 355.224823,267.491852 
	C355.103760,262.580231 358.347778,258.400421 363.334442,256.664429 
	C371.251770,253.908203 379.203674,257.223450 381.754669,264.456757 
	C378.501282,265.923981 375.492920,267.982758 372.316376,263.781799 
	C371.501312,262.703857 368.569458,262.885468 366.680237,263.101654 
	C365.704834,263.213257 364.274780,264.597260 364.161682,265.539734 
	C364.046051,266.503357 365.052155,268.035309 365.995483,268.589600 
	C367.377472,269.401672 369.124878,269.637268 370.744232,269.992493 
	C380.175934,272.061340 383.719452,275.689240 383.118530,282.729187 
	C382.570740,289.146576 377.141571,293.395874 368.667206,293.615143 
	C363.304871,293.753876 358.346832,292.313751 355.236908,287.495148 
	C354.525513,286.392883 354.861206,284.614777 355.096924,283.034546 
z"/>
<path fill="#3FB9FF" opacity="1.000000" stroke="none" 
	d="
M270.768463,287.267273 
	C271.287903,289.243225 271.685760,290.827789 272.148621,292.671234 
	C267.372711,293.034698 262.745636,294.796478 261.134003,287.755829 
	C260.841278,286.477112 255.520599,286.020782 252.483688,285.850220 
	C251.150681,285.775360 248.673523,287.207642 248.514465,288.234222 
	C247.647003,293.833496 244.147934,293.491730 239.522491,292.519379 
	C240.991348,287.840057 242.402313,283.303497 243.840027,278.775482 
	C245.648010,273.081329 247.709656,267.454803 249.220703,261.683533 
	C250.316116,257.499847 252.227982,255.688690 256.803833,256.083130 
	C259.931824,256.352753 261.390991,257.074951 262.296722,260.282532 
	C264.820496,269.220306 267.829498,278.021027 270.768463,287.267273 
M257.826782,274.659760 
	C257.055878,272.450897 256.285004,270.242004 255.514099,268.033142 
	C255.144073,268.066864 254.774033,268.100555 254.404007,268.134277 
	C253.459366,271.493134 252.514740,274.851990 251.454956,278.620331 
	C254.367325,278.620331 256.431976,278.620331 258.781281,278.620331 
	C258.472992,277.330627 258.245453,276.378723 257.826782,274.659760 
z"/>
<path fill="#44BBFF" opacity="1.000000" stroke="none" 
	d="
M399.995239,256.208435 
	C404.451630,256.208557 408.412445,256.208557 412.677246,256.208557 
	C412.677246,258.907379 412.677246,261.118195 412.677246,263.616486 
	C409.837036,263.775238 407.231567,263.920837 404.054993,264.098389 
	C404.054993,273.588013 404.054993,282.980377 404.054993,292.692963 
	C400.915802,292.692963 398.344177,292.692963 395.192871,292.692963 
	C395.192871,283.293701 395.192871,273.900055 395.192871,264.200256 
	C391.920013,263.972198 389.188110,263.781830 386.214081,263.574615 
	C386.214081,261.210175 386.214081,259.110565 386.214081,256.208282 
	C390.660522,256.208282 395.080078,256.208282 399.995239,256.208435 
z"/>
<path fill="#3AB7FF" opacity="1.000000" stroke="none" 
	d="
M346.786316,256.270386 
	C347.866821,257.078217 349.044922,257.862762 349.053467,258.659851 
	C349.173950,269.898132 349.135376,281.138184 349.135376,292.688171 
	C346.337860,292.688171 343.943878,292.688171 341.181763,292.688171 
	C341.181763,280.802429 341.181763,268.955170 341.181763,256.252869 
	C342.872742,256.252869 344.606384,256.252869 346.786316,256.270386 
z"/>
<path fill="#E8F6FF" opacity="1.000000" stroke="none" 
	d="
M257.922363,275.043304 
	C258.245453,276.378723 258.472992,277.330627 258.781281,278.620331 
	C256.431976,278.620331 254.367325,278.620331 251.454956,278.620331 
	C252.514740,274.851990 253.459366,271.493134 254.404007,268.134277 
	C254.774033,268.100555 255.144073,268.066864 255.514099,268.033142 
	C256.285004,270.242004 257.055878,272.450897 257.922363,275.043304 
z"/>
</svg>